<?xml version="1.0" encoding="UTF-8" standalone="no"?>
<!-- Created with Inkscape (http://www.inkscape.org/) -->

<svg
   xmlns:dc="http://purl.org/dc/elements/1.1/"
   xmlns:cc="http://creativecommons.org/ns#"
   xmlns:rdf="http://www.w3.org/1999/02/22-rdf-syntax-ns#"
   xmlns:svg="http://www.w3.org/2000/svg"
   xmlns="http://www.w3.org/2000/svg"
   xmlns:sodipodi="http://sodipodi.sourceforge.net/DTD/sodipodi-0.dtd"
   xmlns:inkscape="http://www.inkscape.org/namespaces/inkscape"
   version="1.0"
   width="420"
   height="310"
   id="svg2"
   inkscape:version="0.48.0 r9654"
   sodipodi:docname="Sinnbild_P-R.svg">
  <metadata
     id="metadata14">
    <rdf:RDF>
      <cc:Work
         rdf:about="">
        <dc:format>image/svg+xml</dc:format>
        <dc:type
           rdf:resource="http://purl.org/dc/dcmitype/StillImage" />
      </cc:Work>
    </rdf:RDF>
  </metadata>
  <sodipodi:namedview
     pagecolor="#ffffff"
     bordercolor="#666666"
     borderopacity="1"
     objecttolerance="10"
     gridtolerance="10"
     guidetolerance="10"
     inkscape:pageopacity="0"
     inkscape:pageshadow="2"
     inkscape:window-width="1024"
     inkscape:window-height="688"
     id="namedview12"
     showgrid="false"
     inkscape:zoom="1.2910401"
     inkscape:cx="134.37559"
     inkscape:cy="199.61835"
     inkscape:window-x="-8"
     inkscape:window-y="-8"
     inkscape:window-maximized="1"
     inkscape:current-layer="svg2" />
  <defs
     id="defs4" />
  <path
     inkscape:connector-curvature="0"
     id="path19965"
     style="fill:#000000;fill-opacity:1;fill-rule:evenodd;stroke:none"
     d="m 167.63067,141.54153 25.8997,0 1e-5,-25.16992 26.00567,0.1392 0.0423,25.03072 25.8661,0 0,27.11064 -25.8661,0 -0.0732,24.95042 -26.00803,-0.12502 0.0333,-24.8254 -25.8997,0 0,-27.11064 z" />
  <path
     inkscape:connector-curvature="0"
     id="path19064"
     style="fill:#000000;fill-opacity:1;fill-rule:evenodd;stroke:none"
     d="m 5.512072,48.727788 408.444538,0 c 0,-21.395279 -13.41734,-40.3549618 -34.17485,-44.6477827 l -340.094842,0 C 18.118605,8.0937678 5.512072,27.384364 5.512072,48.727788 z" />
  <path
     inkscape:connector-curvature="0"
     id="path19953"
     style="fill:#000000;fill-opacity:1;fill-rule:evenodd;stroke:none"
     d="m 5.3958333,261.4762 408.4445367,0 c 0,21.39527 -13.41734,40.35496 -34.17485,44.64778 l -340.094841,0 C 18.002366,302.11021 5.3958333,282.81962 5.3958333,261.4762 z" />
  <path
     style="fill:#000000;fill-opacity:1;fill-rule:evenodd;stroke:none"
     d="M 75.28125 59.65625 C 64.147271 59.725711 51.392608 60.344106 40.15625 60.40625 L 11.59375 60.40625 L 11.59375 249.15625 L 40.15625 249.15625 L 40.15625 175.90625 L 91.25 175.90625 C 167.83233 159.69982 152.91903 67.948175 92.875 60.375 C 88.056204 59.767218 81.961637 59.614573 75.28125 59.65625 z M 40.15625 88.34375 L 88.375 88.34375 C 119.30205 99.387283 123.75144 132.89055 90.84375 147.53125 L 40.15625 147.53125 L 40.15625 88.34375 z "
     id="path20852" />
  <path
     style="fill:#000000;fill-opacity:1;fill-rule:evenodd;stroke:none"
     d="M 276.5625 60.5 L 276.5625 249.4375 L 305.25 249.53125 L 305.25 168.28125 L 341.28125 168.28125 L 380.9375 249.4375 L 414.53125 249.4375 L 372.40625 166.4375 C 418.36245 148.44411 424.15934 77.011747 361.71875 60.71875 L 305.25 60.71875 L 305.25 60.5 L 276.5625 60.5 z M 305.25 86.8125 L 355.78125 86.8125 C 390.55581 97.308098 384.96281 130.8609 357.3125 142.78125 L 305.25 142.78125 L 305.25 86.8125 z "
     id="path22626" />
</svg>
